<?xml version="1.0" standalone="no"?>
<!DOCTYPE svg PUBLIC "-//W3C//DTD SVG 20010904//EN"
 "http://www.w3.org/TR/2001/REC-SVG-20010904/DTD/svg10.dtd">
<svg version="1.0" xmlns="http://www.w3.org/2000/svg"
 width="500.000000pt" height="500.000000pt" viewBox="0 0 500.000000 500.000000"
 preserveAspectRatio="xMidYMid meet">
<metadata>
Created by potrace 1.14, written by Peter Selinger 2001-2017
</metadata>
<g transform="translate(0.000000,500.000000) scale(0.100000,-0.100000)"
fill="#000000" stroke="none">
<path d="M2310 4153 c-91 -9 -288 -57 -385 -93 -477 -177 -855 -573 -1008
-1055 -57 -180 -72 -283 -72 -500 0 -112 6 -221 13 -265 48 -272 148 -511 304
-723 90 -122 274 -299 401 -386 259 -175 585 -284 840 -280 l92 2 -115 8
c-256 16 -523 102 -745 239 -356 219 -629 589 -729 987 -39 157 -50 247 -50
423 0 183 16 298 65 462 159 534 602 971 1129 1113 172 46 264 58 445 58 369
1 693 -105 985 -321 93 -69 269 -244 337 -336 163 -220 269 -476 309 -750 23
-155 15 -420 -16 -565 -156 -730 -766 -1262 -1500 -1310 l-115 -8 90 -1 c175
-3 369 40 570 126 410 176 740 524 900 947 127 337 132 752 15 1108 -41 126
-137 313 -218 427 -82 116 -259 297 -370 378 -219 162 -473 265 -747 307 -91
13 -329 18 -425 8z"/>
<path d="M2358 3913 c-2 -5 -2 -36 0 -70 3 -46 8 -63 18 -63 8 0 14 10 14 25
0 19 5 25 21 25 52 0 76 41 43 74 -16 16 -90 22 -96 9z m80 -35 c4 -23 -37
-45 -49 -27 -5 8 -9 22 -9 32 0 24 53 20 58 -5z"/>
<path d="M2597 3854 c-4 -37 -6 -69 -4 -70 1 -1 26 -5 55 -9 35 -5 52 -3 52 4
0 6 -18 11 -40 11 -36 0 -40 3 -40 25 0 21 5 25 33 26 l32 1 -27 11 c-17 7
-28 18 -28 30 0 17 5 19 35 14 19 -3 37 -1 40 4 4 5 -2 9 -12 9 -10 0 -34 3
-54 6 l-36 6 -6 -68z"/>
<path d="M2105 3855 c-30 -30 -31 -54 -4 -89 16 -20 29 -26 58 -26 47 0 71 24
71 73 0 65 -77 91 -125 42z m66 4 c31 -16 43 -57 24 -85 -19 -29 -39 -30 -65
-4 -24 24 -26 57 -3 82 19 21 19 21 44 7z"/>
<path d="M2826 3819 c-11 -42 -14 -65 -7 -72 7 -7 14 -2 20 16 7 18 15 25 26
21 8 -3 15 -12 15 -18 0 -17 27 -52 34 -45 4 3 2 17 -3 31 -7 19 -5 27 10 36
40 25 13 71 -52 87 -24 6 -26 3 -43 -56z m82 3 c-2 -9 -13 -18 -26 -20 -17 -3
-22 1 -22 21 0 13 3 27 6 30 12 11 45 -14 42 -31z"/>
<path d="M3087 3783 l22 -15 -24 -49 c-27 -52 -31 -69 -15 -69 5 0 21 23 35
51 23 45 29 50 51 45 39 -10 27 8 -21 32 -52 25 -81 28 -48 5z"/>
<path d="M1868 3774 c-16 -8 -28 -17 -28 -19 0 -19 57 -115 68 -115 9 0 12 6
7 18 -15 40 -11 42 60 27 l30 -6 -28 24 c-19 16 -26 29 -21 40 15 41 -37 59
-88 31z m58 -19 c6 -16 -12 -45 -27 -45 -12 0 -31 39 -24 50 10 15 45 12 51
-5z"/>
<path d="M3280 3654 c0 -19 -7 -51 -15 -71 -10 -24 -12 -40 -6 -46 7 -7 13 -5
17 7 4 9 32 30 63 46 31 16 48 29 38 30 -10 0 -32 -7 -48 -16 l-30 -15 6 44
c6 35 4 45 -9 50 -13 5 -16 -1 -16 -29z"/>
<path d="M1663 3649 c-18 -12 -33 -23 -33 -26 0 -2 15 -25 33 -51 17 -25 35
-50 38 -55 4 -5 12 -6 18 -2 9 5 8 12 -2 29 -13 19 -12 23 9 39 26 19 31 56
12 75 -17 17 -38 15 -75 -9z m56 -18 c8 -14 6 -22 -8 -35 -16 -15 -19 -15 -37
5 -18 20 -18 21 1 35 25 18 32 18 44 -5z"/>
<path d="M2288 3570 c-217 -45 -385 -132 -540 -278 -219 -206 -338 -479 -338
-778 0 -203 39 -363 130 -531 253 -469 810 -687 1306 -512 172 61 281 127 410
251 338 325 426 820 223 1248 -152 320 -437 538 -792 605 -108 20 -290 18
-399 -5z m474 -23 c273 -71 515 -250 655 -485 218 -364 209 -808 -24 -1159
-47 -72 -169 -201 -246 -260 -203 -157 -499 -240 -752 -213 -461 50 -827 365
-941 807 -38 146 -43 333 -14 473 45 218 133 382 290 541 177 177 347 268 592
315 113 21 319 12 440 -19z"/>
<path d="M2445 2956 c-236 -61 -370 -287 -310 -521 41 -158 165 -274 327 -306
103 -21 249 19 330 89 l36 32 4 122 c2 70 9 133 16 146 l13 22 -211 0 -210 0
0 -46 0 -46 30 25 c36 31 107 47 205 47 90 0 87 6 83 -165 l-3 -120 -69 -35
c-63 -32 -77 -35 -150 -34 -97 0 -158 25 -224 92 -127 126 -149 358 -50 515
68 106 173 162 290 154 106 -7 169 -52 186 -135 l7 -31 51 42 51 43 -48 33
c-107 73 -249 105 -354 77z"/>
<path d="M1090 2520 c-8 -15 -6 -24 10 -40 16 -16 25 -18 40 -10 22 12 26 40
8 58 -18 18 -46 14 -58 -8z"/>
<path d="M3853 2533 c-19 -7 -16 -51 4 -62 37 -20 71 27 41 57 -13 13 -24 14
-45 5z"/>
<path d="M3752 2218 c4 -12 80 -35 121 -37 37 -2 9 23 -39 36 -63 16 -87 16
-82 1z"/>
<path d="M1130 2205 c-12 -15 -6 -90 9 -99 4 -3 35 2 69 11 41 10 62 20 62 30
0 11 -7 13 -23 9 -20 -5 -26 1 -40 29 -18 38 -54 48 -77 20z m65 -36 c8 -24 7
-24 -23 -33 -24 -8 -39 12 -28 39 8 22 44 18 51 -6z"/>
<path d="M3710 2082 c0 -5 19 -17 43 -27 l42 -17 -62 -19 c-35 -11 -63 -24
-63 -29 0 -9 63 -40 109 -55 39 -12 21 12 -21 29 l-43 18 60 16 c35 10 60 23
60 30 0 8 -27 25 -59 38 -67 27 -66 27 -66 16z"/>
<path d="M1230 1978 c-60 -27 -37 -35 25 -8 37 16 51 18 62 9 26 -22 11 -53
-40 -78 -35 -17 -45 -27 -37 -35 8 -8 24 -4 58 14 39 21 48 30 50 56 4 37 -19
64 -51 63 -12 0 -42 -10 -67 -21z"/>
<path d="M3583 1825 c-5 -15 76 -129 85 -120 3 3 -9 25 -26 50 -35 50 -31 53
41 36 23 -6 39 -5 43 1 9 14 4 16 -70 32 -56 11 -68 12 -73 1z"/>
<path d="M1365 1765 c-30 -30 -32 -64 -4 -99 15 -19 30 -26 54 -26 24 0 39 7
54 26 24 30 26 43 10 77 -11 25 -47 47 -75 47 -8 0 -26 -11 -39 -25z m95 -20
c16 -19 4 -52 -26 -72 -52 -33 -99 23 -57 69 19 22 66 24 83 3z"/>
<path d="M3440 1645 c-18 -19 -30 -38 -26 -42 4 -5 19 5 33 21 23 27 26 28 41
12 13 -12 14 -18 4 -28 -7 -7 -12 -19 -12 -27 1 -12 6 -10 20 8 17 19 23 21
35 11 13 -11 12 -17 -10 -46 -34 -45 -18 -43 26 2 l34 36 -50 44 c-27 24 -52
44 -56 44 -3 0 -20 -16 -39 -35z"/>
<path d="M1580 1581 c0 -26 -4 -31 -25 -31 -18 0 -26 -7 -31 -26 -5 -21 0 -32
24 -57 l32 -31 36 34 c39 38 59 69 50 77 -3 4 -15 -2 -25 -11 -27 -24 -43 -11
-39 32 2 22 -2 37 -9 39 -9 3 -13 -6 -13 -26z m19 -64 c8 -11 6 -18 -8 -31
-22 -20 -41 -14 -41 13 0 32 28 42 49 18z"/>
<path d="M3276 1501 c-10 -11 -16 -30 -14 -43 3 -20 8 -23 52 -23 66 0 73 -32
11 -48 -13 -3 -9 -5 12 -6 37 -1 68 34 57 64 -6 14 -16 16 -56 13 -27 -3 -51
-2 -53 3 -10 16 9 39 39 48 l31 9 -31 1 c-19 1 -38 -7 -48 -18z"/>
<path d="M1752 1432 l-23 -31 26 -17 c14 -9 29 -14 33 -10 3 4 0 11 -7 16 -17
10 -7 40 13 40 9 0 23 -11 31 -24 38 -58 -50 -120 -89 -64 -13 18 -16 19 -16
6 0 -43 85 -63 120 -28 38 38 15 120 -35 120 -13 0 -25 5 -27 12 -2 6 -14 -3
-26 -20z"/>
<path d="M3097 1383 c-4 -3 6 -30 23 -59 30 -53 30 -53 9 -65 -11 -6 -19 -13
-16 -15 6 -6 107 44 107 52 0 4 -11 3 -24 0 -22 -5 -28 0 -53 44 -28 50 -34
56 -46 43z"/>
<path d="M2944 1284 c4 -16 10 -38 13 -49 5 -17 1 -16 -30 8 -20 15 -38 27
-41 27 -3 0 -11 -19 -17 -42 l-12 -43 -16 47 c-11 32 -20 45 -28 40 -16 -10
19 -127 38 -127 7 0 17 16 22 35 13 52 23 57 55 27 32 -30 68 -37 58 -11 -4 9
-11 36 -17 60 -6 25 -16 47 -22 51 -6 4 -7 -4 -3 -23z"/>
<path d="M2126 1274 c-24 -23 -20 -40 16 -68 26 -20 30 -28 21 -37 -10 -10
-18 -10 -38 -1 -30 14 -34 -2 -4 -18 27 -15 59 -9 73 12 8 14 4 24 -23 52 -18
19 -30 39 -27 45 10 16 41 13 56 -4 7 -8 18 -15 24 -15 19 1 -44 50 -64 50
-10 0 -26 -7 -34 -16z"/>
<path d="M2618 1243 c-21 -2 -38 -9 -38 -14 0 -5 17 -9 38 -7 32 3 37 0 40
-19 3 -19 -1 -23 -22 -23 -14 0 -26 -4 -26 -10 0 -5 11 -10 25 -10 18 0 25 -5
25 -20 0 -16 -7 -20 -35 -20 -19 0 -35 -4 -35 -10 0 -11 24 -13 69 -4 27 6 31
11 31 38 0 54 -12 106 -24 104 -6 -1 -28 -3 -48 -5z"/>
<path d="M2340 1198 c0 -24 -3 -53 -6 -65 -4 -14 -2 -23 5 -23 6 0 11 12 12
28 1 60 12 63 44 11 16 -27 34 -49 41 -49 13 0 24 45 24 103 0 54 -18 36 -22
-22 l-3 -45 -32 52 c-40 65 -63 69 -63 10z"/>
</g>
</svg>
